<svg xmlns="http://www.w3.org/2000/svg" width="187" height="190.811" viewBox="0 0 187 190.811">
  <g id="reset-password" transform="translate(-10.715)">
    <g id="Group_41242" data-name="Group 41242" transform="translate(10.562 9.131)">
      <ellipse id="Ellipse_12" data-name="Ellipse 12" cx="93.5" cy="91" rx="93.5" ry="91" transform="translate(0.153 -0.32)" fill="#fff8ee"/>
    </g>
    <g id="Group_41244" data-name="Group 41244" transform="translate(25.366 29.639)">
      <path id="Path_39503" data-name="Path 39503" d="M89.262,86.874a37.557,37.557,0,0,1,.925-8.3A79.918,79.918,0,0,0,48.67,132.631a3.772,3.772,0,1,0,7.373,1.6A72.662,72.662,0,0,1,81.068,93.507a71.763,71.763,0,0,1,8.194-5.775Z" transform="translate(-48.584 -78.576)" fill="#ffcb7e"/>
      <path id="Path_39504" data-name="Path 39504" d="M401.264,139.363h-5.47A80.16,80.16,0,0,0,353.125,78.6a37.533,37.533,0,0,1,.924,8.29v.878a72.572,72.572,0,0,1,34.128,51.6h-4.86a2.133,2.133,0,0,0-1.712,3.406l8.974,12.068a2.133,2.133,0,0,0,3.423,0l8.974-12.068A2.133,2.133,0,0,0,401.264,139.363Z" transform="translate(-238.252 -78.588)" fill="#ffcb7e"/>
      <g id="Group_41243" data-name="Group 41243" transform="translate(142.927 60.775)">
        <path id="Path_39505" data-name="Path 39505" d="M432.781,243.1a2.133,2.133,0,0,1,1.712-3.406h-4.856a2.133,2.133,0,0,0-1.712,3.406L436.9,255.17a2.133,2.133,0,0,0,3.424,0l.716-.963Z" transform="translate(-427.5 -239.696)" fill="#f2a431"/>
      </g>
    </g>
    <g id="Group_41247" data-name="Group 41247" transform="translate(16.847 94.677)">
      <path id="Path_39506" data-name="Path 39506" d="M48.632,290.661a71.879,71.879,0,0,1-7.563-23.328h5.016a2.133,2.133,0,0,0,1.712-3.406L38.822,251.86a2.133,2.133,0,0,0-3.423,0l-8.974,12.068a2.133,2.133,0,0,0,1.712,3.406h5.314a79.554,79.554,0,0,0,15.181,37.42Z" transform="translate(-26 -250.999)" fill="#ffcb7e"/>
      <g id="Group_41245" data-name="Group 41245" transform="translate(0 0)">
        <path id="Path_39507" data-name="Path 39507" d="M31.329,263.928l8.234-11.073-.74-1a2.133,2.133,0,0,0-3.423,0l-8.974,12.068a2.133,2.133,0,0,0,1.712,3.406h4.9A2.133,2.133,0,0,1,31.329,263.928Z" transform="translate(-26 -251)" fill="#f2a431"/>
      </g>
      <g id="Group_41246" data-name="Group 41246" transform="translate(35.674 18.483)">
        <path id="Path_39508" data-name="Path 39508" d="M437.139,300.085a3.773,3.773,0,0,0-4.486,2.887A71.844,71.844,0,0,1,426,321.209v14.1a79.906,79.906,0,0,0,14.027-30.738A3.771,3.771,0,0,0,437.139,300.085Z" transform="translate(-310.793 -299.999)" fill="#ffcb7e"/>
        <path id="Path_39509" data-name="Path 39509" d="M209.948,429.971a72.344,72.344,0,0,1-76.535,0H120.575a79.885,79.885,0,0,0,101.6.515c.208-.17.412-.344.618-.515Z" transform="translate(-120.575 -380.945)" fill="#ffcb7e"/>
      </g>
    </g>
    <g id="Group_41252" data-name="Group 41252" transform="translate(53.162 0)">
      <path id="Path_39510" data-name="Path 39510" d="M170.806,55.075V37.937a22.556,22.556,0,0,1,45.112,0V55.075H231.3V37.937a37.937,37.937,0,1,0-75.873,0V55.075Z" transform="translate(-142.921 0)" fill="#4a6b88"/>
      <g id="Group_41248" data-name="Group 41248" transform="translate(12.505)">
        <path id="Path_39511" data-name="Path 39511" d="M285.913,63.331V80.469h8.911V63.331a22.558,22.558,0,0,0-27.012-22.112A22.593,22.593,0,0,1,285.913,63.331Z" transform="translate(-225.421 -25.395)" fill="#384652"/>
        <path id="Path_39512" data-name="Path 39512" d="M164.337,55.075V37.937A37.991,37.991,0,0,1,197.818.263a37.934,37.934,0,0,0-42.392,37.674V55.075Z" transform="translate(-155.426 0)" fill="#384652"/>
      </g>
      <path id="Path_39513" data-name="Path 39513" d="M217.835,145.009H127.6a5.321,5.321,0,0,0-5.322,5.321v59.41H223.157V150.33A5.321,5.321,0,0,0,217.835,145.009Z" transform="translate(-122.274 -90.312)" fill="#ffcb7e"/>
      <path id="Path_39514" data-name="Path 39514" d="M141.916,209.741V150.33a5.321,5.321,0,0,1,5.322-5.321H127.6a5.322,5.322,0,0,0-5.322,5.321v59.41Z" transform="translate(-122.274 -90.312)" fill="#f2a431"/>
      <g id="Group_41249" data-name="Group 41249" transform="translate(33.831 66.06)">
        <path id="Path_39515" data-name="Path 39515" d="M226.989,224.969a8.879,8.879,0,0,1-8.869-8.869V204.651a16.555,16.555,0,0,1-6.081-14.5,16.724,16.724,0,0,1,15.367-14.975c.388-.027.781-.04,1.168-.04a16.611,16.611,0,0,1,10.454,29.519V216.1a8.879,8.879,0,0,1-8.869,8.869Z" transform="translate(-211.963 -175.133)" fill="#ffba54"/>
      </g>
      <g id="Group_41250" data-name="Group 41250" transform="translate(39.153 71.382)">
        <path id="Path_39516" data-name="Path 39516" d="M248.65,200.53a11.29,11.29,0,1,0-17.277,9.568,1.785,1.785,0,0,1,.855,1.507v13.281a3.548,3.548,0,0,0,3.548,3.548h3.171a3.548,3.548,0,0,0,3.548-3.548V211.615a1.8,1.8,0,0,1,.861-1.52A11.277,11.277,0,0,0,248.65,200.53Z" transform="translate(-226.072 -189.241)" fill="#4a6b88"/>
      </g>
      <g id="Group_41251" data-name="Group 41251" transform="translate(39.152 71.382)">
        <path id="Path_39517" data-name="Path 39517" d="M238.031,224.887V211.606a1.785,1.785,0,0,0-.855-1.507,11.287,11.287,0,0,1,3.085-20.478,11.288,11.288,0,0,0-8.89,20.478,1.784,1.784,0,0,1,.855,1.507v13.281a3.548,3.548,0,0,0,3.548,3.548h3.171a3.529,3.529,0,0,0,1.317-.255A3.547,3.547,0,0,1,238.031,224.887Z" transform="translate(-226.071 -189.242)" fill="#384652"/>
      </g>
    </g>
    <g id="Group_41260" data-name="Group 41260" transform="translate(39.102 119.052)">
      <g id="Group_41253" data-name="Group 41253" transform="translate(0)">
        <path id="Path_39518" data-name="Path 39518" d="M208.345,359.13H90.658A5.658,5.658,0,0,1,85,353.472V321.278a5.658,5.658,0,0,1,5.658-5.658H208.345A5.658,5.658,0,0,1,214,321.278v32.194A5.658,5.658,0,0,1,208.345,359.13Z" transform="translate(-85 -315.62)" fill="#2c8542"/>
      </g>
      <g id="Group_41258" data-name="Group 41258" transform="translate(18.86 11.648)">
        <g id="Group_41254" data-name="Group 41254">
          <path id="Path_39519" data-name="Path 39519" d="M173.35,359.163l2.9-1.677a2.264,2.264,0,0,0-2.653-.285l-.252.146Z" transform="translate(-158.884 -352.976)" fill="#1a4224"/>
          <path id="Path_39520" data-name="Path 39520" d="M156.156,352.688v-3.924a2.254,2.254,0,0,1,.69-1.625,2.262,2.262,0,0,0-3.836,1.625v2.107Z" transform="translate(-146.217 -346.501)" fill="#1a4224"/>
          <path id="Path_39521" data-name="Path 39521" d="M173.35,383.688V385.5l.252.146a2.253,2.253,0,0,0,2.65-.286Z" transform="translate(-158.884 -369.661)" fill="#1a4224"/>
          <path id="Path_39522" data-name="Path 39522" d="M156.156,387.612v-3.924L153.01,385.5v2.107a2.262,2.262,0,0,0,3.836,1.625A2.254,2.254,0,0,1,156.156,387.612Z" transform="translate(-146.217 -369.661)" fill="#1a4224"/>
          <path id="Path_39523" data-name="Path 39523" d="M138.45,368.136a2.263,2.263,0,0,1,.828-3.091l3.4-1.962-3.4-1.962a2.263,2.263,0,0,1-.39-3.635l-.493-.285a2.263,2.263,0,1,0-2.263,3.92l3.4,1.962-3.4,1.962a2.263,2.263,0,1,0,2.264,3.92l.5-.286a2.235,2.235,0,0,1-.442-.542Z" transform="translate(-135 -352.976)" fill="#1a4224"/>
        </g>
        <g id="Group_41255" data-name="Group 41255" transform="translate(22.293)">
          <path id="Path_39524" data-name="Path 39524" d="M215.256,352.688v-3.924a2.254,2.254,0,0,1,.69-1.625,2.262,2.262,0,0,0-3.836,1.625v2.107Z" transform="translate(-205.317 -346.501)" fill="#1a4224"/>
          <path id="Path_39525" data-name="Path 39525" d="M232.45,359.163l2.9-1.677a2.264,2.264,0,0,0-2.653-.285l-.252.146Z" transform="translate(-217.984 -352.976)" fill="#1a4224"/>
          <path id="Path_39526" data-name="Path 39526" d="M232.45,383.688V385.5l.252.146a2.253,2.253,0,0,0,2.65-.286Z" transform="translate(-217.984 -369.661)" fill="#1a4224"/>
          <path id="Path_39527" data-name="Path 39527" d="M215.256,387.612v-3.924L212.11,385.5v2.107a2.262,2.262,0,0,0,3.836,1.625A2.254,2.254,0,0,1,215.256,387.612Z" transform="translate(-205.317 -369.661)" fill="#1a4224"/>
          <path id="Path_39528" data-name="Path 39528" d="M197.549,368.136a2.263,2.263,0,0,1,.828-3.091l3.4-1.962-3.4-1.962a2.263,2.263,0,0,1-.39-3.635l-.493-.285a2.263,2.263,0,1,0-2.263,3.92l3.4,1.962-3.4,1.962a2.263,2.263,0,1,0,2.264,3.92l.5-.286a2.236,2.236,0,0,1-.442-.542Z" transform="translate(-194.1 -352.976)" fill="#1a4224"/>
        </g>
        <g id="Group_41256" data-name="Group 41256" transform="translate(44.585)">
          <path id="Path_39529" data-name="Path 39529" d="M274.356,352.688v-3.924a2.254,2.254,0,0,1,.69-1.625,2.262,2.262,0,0,0-3.836,1.625v2.107Z" transform="translate(-264.417 -346.501)" fill="#1a4224"/>
          <path id="Path_39530" data-name="Path 39530" d="M256.649,368.136a2.263,2.263,0,0,1,.828-3.091l3.4-1.962-3.4-1.962a2.263,2.263,0,0,1-.39-3.635l-.493-.285a2.263,2.263,0,1,0-2.263,3.92l3.4,1.962-3.4,1.962a2.263,2.263,0,1,0,2.264,3.92l.5-.286a2.247,2.247,0,0,1-.442-.542Z" transform="translate(-253.2 -352.976)" fill="#1a4224"/>
          <path id="Path_39531" data-name="Path 39531" d="M291.55,359.163l2.905-1.677a2.264,2.264,0,0,0-2.653-.285l-.252.146Z" transform="translate(-277.084 -352.976)" fill="#1a4224"/>
          <path id="Path_39532" data-name="Path 39532" d="M291.55,383.688V385.5l.252.146a2.253,2.253,0,0,0,2.65-.286Z" transform="translate(-277.084 -369.661)" fill="#1a4224"/>
          <path id="Path_39533" data-name="Path 39533" d="M274.356,387.612v-3.924L271.21,385.5v2.107a2.262,2.262,0,0,0,3.836,1.625A2.254,2.254,0,0,1,274.356,387.612Z" transform="translate(-264.417 -369.661)" fill="#1a4224"/>
        </g>
        <g id="Group_41257" data-name="Group 41257" transform="translate(66.878)">
          <path id="Path_39534" data-name="Path 39534" d="M333.456,352.688v-3.924a2.254,2.254,0,0,1,.69-1.625,2.262,2.262,0,0,0-3.836,1.625v2.107Z" transform="translate(-323.517 -346.501)" fill="#1a4224"/>
          <path id="Path_39535" data-name="Path 39535" d="M350.65,359.163l2.905-1.677a2.264,2.264,0,0,0-2.653-.285l-.252.146Z" transform="translate(-336.184 -352.976)" fill="#1a4224"/>
          <path id="Path_39536" data-name="Path 39536" d="M350.65,383.688V385.5l.252.146a2.253,2.253,0,0,0,2.65-.286Z" transform="translate(-336.184 -369.661)" fill="#1a4224"/>
          <path id="Path_39537" data-name="Path 39537" d="M315.749,368.137a2.263,2.263,0,0,1,.828-3.091l3.4-1.962-3.4-1.962a2.262,2.262,0,0,1-.39-3.635l-.493-.285a2.263,2.263,0,0,0-2.263,3.92l3.4,1.962-3.4,1.962a2.263,2.263,0,1,0,2.264,3.92l.5-.286A2.256,2.256,0,0,1,315.749,368.137Z" transform="translate(-312.3 -352.976)" fill="#1a4224"/>
          <path id="Path_39538" data-name="Path 39538" d="M333.456,387.612v-3.924L330.31,385.5v2.107a2.262,2.262,0,0,0,3.836,1.625A2.254,2.254,0,0,1,333.456,387.612Z" transform="translate(-323.517 -369.661)" fill="#1a4224"/>
        </g>
      </g>
      <path id="Path_39539" data-name="Path 39539" d="M103.106,353.472V321.278a5.658,5.658,0,0,1,5.658-5.658H90.658A5.658,5.658,0,0,0,85,321.278v32.194a5.658,5.658,0,0,0,5.658,5.658h18.106A5.658,5.658,0,0,1,103.106,353.472Z" transform="translate(-85 -315.62)" fill="#1a4224"/>
      <g id="Group_41259" data-name="Group 41259" transform="translate(22.006 11.648)">
        <path id="Path_39540" data-name="Path 39540" d="M161.15,351.554a2.263,2.263,0,0,0-3.092-.828l-3.4,1.962v-3.924a2.263,2.263,0,1,0-4.526,0v3.924l-3.4-1.962a2.263,2.263,0,1,0-2.263,3.92l3.4,1.962-3.4,1.962a2.263,2.263,0,1,0,2.264,3.92l3.4-1.962v3.924a2.263,2.263,0,0,0,4.526,0v-3.924l3.4,1.962a2.263,2.263,0,1,0,2.264-3.92l-3.4-1.962,3.4-1.962A2.264,2.264,0,0,0,161.15,351.554Z" transform="translate(-143.341 -346.501)" fill="#fff"/>
        <path id="Path_39541" data-name="Path 39541" d="M220.25,351.554a2.263,2.263,0,0,0-3.092-.828l-3.4,1.962v-3.924a2.263,2.263,0,1,0-4.526,0v3.924l-3.4-1.962a2.263,2.263,0,1,0-2.263,3.92l3.4,1.962-3.4,1.962a2.263,2.263,0,1,0,2.264,3.92l3.4-1.962v3.924a2.263,2.263,0,0,0,4.526,0v-3.924l3.4,1.962a2.263,2.263,0,1,0,2.264-3.92l-3.4-1.962,3.4-1.962A2.264,2.264,0,0,0,220.25,351.554Z" transform="translate(-180.148 -346.501)" fill="#fff"/>
        <path id="Path_39542" data-name="Path 39542" d="M279.35,351.554a2.263,2.263,0,0,0-3.092-.828l-3.4,1.962v-3.924a2.263,2.263,0,1,0-4.526,0v3.924l-3.4-1.962a2.263,2.263,0,1,0-2.263,3.92l3.4,1.962-3.4,1.962a2.263,2.263,0,1,0,2.264,3.92l3.4-1.962v3.924a2.263,2.263,0,0,0,4.526,0v-3.924l3.4,1.962a2.263,2.263,0,1,0,2.264-3.92l-3.4-1.962,3.4-1.962A2.264,2.264,0,0,0,279.35,351.554Z" transform="translate(-216.956 -346.501)" fill="#fff"/>
        <path id="Path_39543" data-name="Path 39543" d="M337.622,358.57l-3.4-1.962,3.4-1.962a2.263,2.263,0,1,0-2.263-3.92l-3.4,1.962v-3.924a2.263,2.263,0,0,0-4.526,0v3.924l-3.4-1.962a2.263,2.263,0,1,0-2.263,3.92l3.4,1.962-3.4,1.962a2.263,2.263,0,1,0,2.263,3.92l3.4-1.962v3.924a2.263,2.263,0,1,0,4.526,0v-3.924l3.4,1.962a2.263,2.263,0,1,0,2.263-3.92Z" transform="translate(-253.763 -346.502)" fill="#fff"/>
      </g>
    </g>
  </g>
</svg>
